<?xml version="1.0" encoding="UTF-8" standalone="no"?>
<!-- Created with Inkscape (http://www.inkscape.org/) -->

<svg
   xmlns:dc="http://purl.org/dc/elements/1.1/"
   xmlns:cc="http://creativecommons.org/ns#"
   xmlns:rdf="http://www.w3.org/1999/02/22-rdf-syntax-ns#"
   xmlns:svg="http://www.w3.org/2000/svg"
   xmlns="http://www.w3.org/2000/svg"
   xmlns:sodipodi="http://sodipodi.sourceforge.net/DTD/sodipodi-0.dtd"
   xmlns:inkscape="http://www.inkscape.org/namespaces/inkscape"
   width="49.388889mm"
   height="31.044445mm"
   viewBox="0 0 175 110"
   id="svg2"
   version="1.1"
   inkscape:version="0.91 r13725"
   sodipodi:docname="logo.svg">
  <defs
     id="defs4">
    <inkscape:perspective
       sodipodi:type="inkscape:persp3d"
       inkscape:vp_x="0 : 526.18109 : 1"
       inkscape:vp_y="0 : 999.99998 : 0"
       inkscape:vp_z="744.09448 : 526.18109 : 1"
       inkscape:persp3d-origin="372.04724 : 350.78739 : 1"
       id="perspective4154" />
  </defs>
  <sodipodi:namedview
     id="base"
     pagecolor="#ffffff"
     bordercolor="#666666"
     borderopacity="1.0"
     inkscape:pageopacity="0.0"
     inkscape:pageshadow="2"
     inkscape:zoom="3.6203867"
     inkscape:cx="42.069945"
     inkscape:cy="97.512327"
     inkscape:document-units="px"
     inkscape:current-layer="layer3"
     showgrid="false"
     inkscape:window-width="2560"
     inkscape:window-height="1377"
     inkscape:window-x="-8"
     inkscape:window-y="-8"
     inkscape:window-maximized="1"
     fit-margin-top="0"
     fit-margin-left="0"
     fit-margin-right="0"
     fit-margin-bottom="0" />
  <metadata
     id="metadata7">
    <rdf:RDF>
      <cc:Work
         rdf:about="">
        <dc:format>image/svg+xml</dc:format>
        <dc:type
           rdf:resource="http://purl.org/dc/dcmitype/StillImage" />
        <dc:title></dc:title>
      </cc:Work>
    </rdf:RDF>
  </metadata>
  <g
     transform="translate(-143,-152.3622)"
     inkscape:label="Pins Kopie"
     id="g4267"
     inkscape:groupmode="layer">
    <path
       sodipodi:nodetypes="ccccccccc"
       inkscape:connector-curvature="0"
       id="path4269"
       d="m 278,178.1497 16,0 c 2.43229,0.005 5.33334,3.46659 8,3.4375 l 16,0 0,6.875 -20,0 c -2.86198,-0.005 -5.37239,-3.36588 -8,-3.4375 l -12,0 z"
       style="fill:#707070;fill-opacity:1;fill-rule:evenodd;stroke:none;stroke-width:1px;stroke-linecap:butt;stroke-linejoin:miter;stroke-opacity:1" />
    <path
       inkscape:transform-center-y="-5.5053704"
       inkscape:transform-center-x="-7.9687501"
       sodipodi:nodetypes="ccccccccc"
       inkscape:connector-curvature="0"
       id="path4271"
       d="m 278,208.1497 16,0 c 2.43229,0.005 5.33334,3.46659 8,3.4375 l 16,0 0,6.875 -20,0 c -2.86198,-0.005 -5.37239,-3.36588 -8,-3.4375 l -12,0 z"
       style="fill:#707070;fill-opacity:1;fill-rule:evenodd;stroke:none;stroke-width:1px;stroke-linecap:butt;stroke-linejoin:miter;stroke-opacity:1" />
    <path
       sodipodi:nodetypes="ccccccccc"
       inkscape:connector-curvature="0"
       id="path4273"
       d="m 278,239.51689 16,0 c 2.43229,0.004 5.33334,3.00701 8,2.98177 l 16,0 0,5.96354 -20,0 c -2.86198,-0.004 -5.37239,-2.91965 -8,-2.98177 l -12,0 z"
       style="fill:#707070;fill-opacity:1;fill-rule:evenodd;stroke:none;stroke-width:1px;stroke-linecap:butt;stroke-linejoin:miter;stroke-opacity:1" />
    <path
       sodipodi:nodetypes="ccccccccc"
       inkscape:connector-curvature="0"
       id="path4275"
       d="m 183,178.1497 -16,0 c -2.43228,0.005 -5.33334,3.46659 -7.99999,3.4375 l -16.00001,0 0,6.875 20,0 c 2.86198,-0.005 5.37239,-3.36588 8,-3.4375 l 12,0 z"
       style="fill:#707070;fill-opacity:1;fill-rule:evenodd;stroke:none;stroke-width:1px;stroke-linecap:butt;stroke-linejoin:miter;stroke-opacity:1" />
    <path
       inkscape:transform-center-y="-5.5053704"
       inkscape:transform-center-x="7.9687513"
       sodipodi:nodetypes="ccccccccc"
       inkscape:connector-curvature="0"
       id="path4277"
       d="m 183,208.1497 -16,0 c -2.43228,0.005 -5.33334,3.46659 -7.99999,3.4375 l -16.00001,0 0,6.875 20,0 c 2.86198,-0.005 5.37239,-3.36588 8,-3.4375 l 12,0 z"
       style="fill:#707070;fill-opacity:1;fill-rule:evenodd;stroke:none;stroke-width:1px;stroke-linecap:butt;stroke-linejoin:miter;stroke-opacity:1" />
    <path
       sodipodi:nodetypes="ccccccccc"
       inkscape:connector-curvature="0"
       id="path4279"
       d="m 183,239.51689 -16,0 c -2.43228,0.004 -5.33334,3.00701 -7.99999,2.98177 l -16.00001,0 0,5.96354 20,0 c 2.86198,-0.004 5.37239,-2.91965 8,-2.98177 l 12,0 z"
       style="fill:#707070;fill-opacity:1;fill-rule:evenodd;stroke:none;stroke-width:1px;stroke-linecap:butt;stroke-linejoin:miter;stroke-opacity:1" />
    <flowRoot
       style="font-style:normal;font-variant:normal;font-weight:normal;font-stretch:normal;font-size:60px;line-height:125%;font-family:Consolas;-inkscape-font-specification:Consolas;letter-spacing:0px;word-spacing:0px;fill:#707070;fill-opacity:1;stroke:none;stroke-width:1px;stroke-linecap:butt;stroke-linejoin:miter;stroke-opacity:1"
       id="flowRoot4281"
       xml:space="preserve"
       transform="translate(0,1.1000231)"><flowRegion
         id="flowRegion4283"><rect
           style="font-style:normal;font-variant:normal;font-weight:normal;font-stretch:normal;font-family:Consolas;-inkscape-font-specification:Consolas;fill:#707070;fill-opacity:1"
           y="166.03407"
           x="176.17188"
           height="88.671875"
           width="94.140625"
           id="rect4285" /></flowRegion><flowPara
         id="flowPara4287">OPPP</flowPara></flowRoot>  </g>
  <g
     inkscape:groupmode="layer"
     id="layer2"
     inkscape:label="Pins"
     transform="translate(-143,-152.3622)">
    <path
       style="fill:#aaaaaa;fill-opacity:1;fill-rule:evenodd;stroke:none;stroke-width:1px;stroke-linecap:butt;stroke-linejoin:miter;stroke-opacity:1"
       d="m 278,172.3622 16,0 c 2.43229,0.007 5.33334,5.04232 8,5 l 16,0 0,10 -20,0 c -2.86198,-0.007 -5.37239,-4.89583 -8,-5 l -12,0 z"
       id="path4188"
       inkscape:connector-curvature="0"
       sodipodi:nodetypes="ccccccccc" />
    <path
       style="fill:#aaaaaa;fill-opacity:1;fill-rule:evenodd;stroke:none;stroke-width:1px;stroke-linecap:butt;stroke-linejoin:miter;stroke-opacity:1"
       d="m 278,202.3622 16,0 c 2.43229,0.007 5.33334,5.04232 8,5 l 16,0 0,10 -20,0 c -2.86198,-0.007 -5.37239,-4.89583 -8,-5 l -12,0 z"
       id="path4188-2"
       inkscape:connector-curvature="0"
       sodipodi:nodetypes="ccccccccc"
       inkscape:transform-center-x="-7.9687501"
       inkscape:transform-center-y="-8.0078125" />
    <path
       style="fill:#aaaaaa;fill-opacity:1;fill-rule:evenodd;stroke:none;stroke-width:1px;stroke-linecap:butt;stroke-linejoin:miter;stroke-opacity:1"
       d="m 278,232.3622 16,0 c 2.43229,0.007 5.33334,5.04232 8,5 l 16,0 0,10 -20,0 c -2.86198,-0.007 -5.37239,-4.89583 -8,-5 l -12,0 z"
       id="path4188-9"
       inkscape:connector-curvature="0"
       sodipodi:nodetypes="ccccccccc" />
    <path
       style="fill:#aaaaaa;fill-opacity:1;fill-rule:evenodd;stroke:none;stroke-width:1px;stroke-linecap:butt;stroke-linejoin:miter;stroke-opacity:1"
       d="m 183,172.3622 -16,0 c -2.43228,0.007 -5.33334,5.04232 -7.99999,5 l -16.00001,0 0,10 20,0 c 2.86198,-0.007 5.37239,-4.89583 8,-5 l 12,0 z"
       id="path4188-93"
       inkscape:connector-curvature="0"
       sodipodi:nodetypes="ccccccccc" />
    <path
       style="fill:#aaaaaa;fill-opacity:1;fill-rule:evenodd;stroke:none;stroke-width:1px;stroke-linecap:butt;stroke-linejoin:miter;stroke-opacity:1"
       d="m 183,202.3622 -16,0 c -2.43228,0.007 -5.33334,5.04232 -7.99999,5 l -16.00001,0 0,10 20,0 c 2.86198,-0.007 5.37239,-4.89583 8,-5 l 12,0 z"
       id="path4188-2-1"
       inkscape:connector-curvature="0"
       sodipodi:nodetypes="ccccccccc"
       inkscape:transform-center-x="7.9687513"
       inkscape:transform-center-y="-8.0078125" />
    <path
       style="fill:#aaaaaa;fill-opacity:1;fill-rule:evenodd;stroke:none;stroke-width:1px;stroke-linecap:butt;stroke-linejoin:miter;stroke-opacity:1"
       d="m 183,232.3622 -16,0 c -2.43228,0.007 -5.33334,5.04232 -7.99999,5 l -16.00001,0 0,10 20,0 c 2.86198,-0.007 5.37239,-4.89583 8,-5 l 12,0 z"
       id="path4188-9-1"
       inkscape:connector-curvature="0"
       sodipodi:nodetypes="ccccccccc" />
    <flowRoot
       xml:space="preserve"
       id="flowRoot4232"
       style="font-style:normal;font-variant:normal;font-weight:normal;font-stretch:normal;font-size:60px;line-height:125%;font-family:Consolas;-inkscape-font-specification:Consolas;letter-spacing:0px;word-spacing:0px;fill:#000000;fill-opacity:1;stroke:none;stroke-width:1px;stroke-linecap:butt;stroke-linejoin:miter;stroke-opacity:1"><flowRegion
         id="flowRegion4234"><rect
           id="rect4236"
           width="94.140625"
           height="88.671875"
           x="176.17188"
           y="166.03407"
           style="font-style:normal;font-variant:normal;font-weight:normal;font-stretch:normal;font-family:Consolas;-inkscape-font-specification:Consolas" /></flowRegion><flowPara
         id="flowPara4238">OPPP</flowPara></flowRoot>  </g>
  <g
     inkscape:label="Ebene 1"
     inkscape:groupmode="layer"
     id="layer1"
     transform="translate(-143,-152.3622)">
    <rect
       style="opacity:1;fill:#2e1c34;fill-opacity:1;fill-rule:nonzero;stroke:none;stroke-width:9.18840694;stroke-linecap:butt;stroke-linejoin:miter;stroke-miterlimit:0;stroke-dasharray:9.18840694, 9.18840694;stroke-dashoffset:17.82551003;stroke-opacity:1"
       id="rect4136-8"
       width="100"
       height="100"
       x="180.99223"
       y="162.3622"
       ry="4.449831" />
    <rect
       style="opacity:1;fill:#5c3674;fill-opacity:1;fill-rule:nonzero;stroke:none;stroke-width:9.18840694;stroke-linecap:butt;stroke-linejoin:miter;stroke-miterlimit:0;stroke-dasharray:9.18840694, 9.18840694;stroke-dashoffset:17.82551003;stroke-opacity:1"
       id="rect4136"
       width="100"
       height="100"
       x="180.99223"
       y="152.3622"
       ry="4.449831" />
  </g>
  <g
     inkscape:groupmode="layer"
     id="layer3"
     inkscape:label="Label"
     transform="translate(-143,-152.3622)">
    <text
       xml:space="preserve"
       style="font-style:normal;font-weight:normal;font-size:56.57395172px;line-height:125%;font-family:'Consolas';-inkscape-font-specification:'Consolas';letter-spacing:0px;word-spacing:0px;fill:#d7bcde;fill-opacity:1;stroke:none;stroke-width:1px;stroke-linecap:butt;stroke-linejoin:miter;stroke-opacity:1"
       x="198.90225"
       y="240.05295"
       id="text4245"
       sodipodi:linespacing="125%"
       transform="scale(1.0605587,0.94289924)"><tspan
         sodipodi:role="line"
         id="tspan4247"
         x="198.90225"
         y="240.05295"
         style="font-style:normal;font-variant:normal;font-weight:normal;font-stretch:normal;font-size:75.43193817px;font-family:Consolas;-inkscape-font-specification:Consolas;fill:#d7bcde;fill-opacity:1">P</tspan></text>
  </g>
</svg>
